<svg width="858" height="858" viewBox="0 0 858 858" fill="none" xmlns="http://www.w3.org/2000/svg">
<path d="M429 393.25H607.75M429 250.25H607.75M286 536.25V128.7C286 123.011 288.26 117.555 292.283 113.533C296.305 109.51 301.761 107.25 307.45 107.25H729.3C734.989 107.25 740.445 109.51 744.467 113.533C748.49 117.555 750.75 123.011 750.75 128.7V607.75C750.75 645.676 735.684 682.049 708.866 708.866C682.049 735.684 645.676 750.75 607.75 750.75" stroke="black" stroke-width="53.625" stroke-linecap="round" stroke-linejoin="round"/>
<path d="M178.75 536.25H443.3C455.133 536.25 464.857 545.795 465.822 557.593C470.22 611.861 492.635 750.75 607.75 750.75H214.5C186.056 750.75 158.776 739.45 138.663 719.337C118.55 699.224 107.25 671.944 107.25 643.5V607.75C107.25 588.787 114.783 570.601 128.192 557.192C141.601 543.783 159.787 536.25 178.75 536.25Z" stroke="black" stroke-width="53.625" stroke-linecap="round" stroke-linejoin="round"/>
</svg>
