<svg width="98" height="26" viewBox="0 0 98 26" fill="none" xmlns="http://www.w3.org/2000/svg">
<path d="M1.2 19V5H6.17C6.89 5 7.54 5.14667 8.12 5.44C8.70667 5.73333 9.17 6.15667 9.51 6.71C9.85667 7.25667 10.03 7.91333 10.03 8.68C10.03 9.05333 9.97 9.42 9.85 9.78C9.73 10.14 9.56 10.4567 9.34 10.73C9.12 11.0033 8.85333 11.1967 8.54 11.31C8.96667 11.4167 9.32 11.61 9.6 11.89C9.88667 12.1633 10.1133 12.4833 10.28 12.85C10.4467 13.2167 10.5633 13.5967 10.63 13.99C10.7033 14.3833 10.74 14.7567 10.74 15.11C10.74 15.8567 10.56 16.5233 10.2 17.11C9.84 17.6967 9.35667 18.16 8.75 18.5C8.15 18.8333 7.48667 19 6.76 19H1.2ZM3.28 17.2H6.56C6.98667 17.2 7.37333 17.0933 7.72 16.88C8.07333 16.6667 8.35333 16.3733 8.56 16C8.76667 15.62 8.87 15.1933 8.87 14.72C8.87 14.3067 8.76667 13.9167 8.56 13.55C8.35333 13.1767 8.07333 12.8767 7.72 12.65C7.37333 12.4233 6.98667 12.31 6.56 12.31H3.28V17.2ZM3.28 10.54H5.95C6.49667 10.54 6.96667 10.3733 7.36 10.04C7.75333 9.70667 7.95 9.25 7.95 8.67C7.95 8.05 7.75333 7.58667 7.36 7.28C6.96667 6.96667 6.49667 6.81 5.95 6.81H3.28V10.54ZM12.743 9H14.823V19H12.743V9ZM13.803 7.55C13.483 7.55 13.2163 7.44667 13.003 7.24C12.7896 7.03333 12.683 6.77333 12.683 6.46C12.683 6.15333 12.7896 5.89667 13.003 5.69C13.2163 5.47667 13.4796 5.37 13.793 5.37C14.0996 5.37 14.3596 5.47667 14.573 5.69C14.7863 5.89667 14.893 6.15333 14.893 6.46C14.893 6.77333 14.7863 7.03333 14.573 7.24C14.3663 7.44667 14.1096 7.55 13.803 7.55ZM24.6498 9H26.7298V19.26C26.7298 19.9467 26.5832 20.58 26.2898 21.16C26.0032 21.74 25.6132 22.24 25.1198 22.66C24.6265 23.0867 24.0598 23.4167 23.4198 23.65C22.7865 23.8833 22.1232 24 21.4298 24C20.7298 24 20.0565 23.85 19.4098 23.55C18.7632 23.2567 18.1932 22.8567 17.6998 22.35C17.2132 21.8433 16.8498 21.27 16.6098 20.63L18.5198 19.77C18.6532 20.1833 18.8665 20.55 19.1598 20.87C19.4598 21.19 19.8065 21.4433 20.1998 21.63C20.5998 21.8167 21.0098 21.91 21.4298 21.91C21.8432 21.91 22.2398 21.8433 22.6198 21.71C23.0065 21.5833 23.3498 21.4033 23.6498 21.17C23.9565 20.9367 24.1998 20.6567 24.3798 20.33C24.5598 20.0033 24.6498 19.6467 24.6498 19.26V17.57C24.3232 18.0767 23.9032 18.4867 23.3898 18.8C22.8765 19.1067 22.2798 19.26 21.5998 19.26C20.8932 19.26 20.2265 19.1233 19.5998 18.85C18.9732 18.5767 18.4232 18.2 17.9498 17.72C17.4765 17.2333 17.1065 16.6733 16.8398 16.04C16.5732 15.4067 16.4398 14.7267 16.4398 14C16.4398 13.2733 16.5732 12.5933 16.8398 11.96C17.1065 11.32 17.4765 10.76 17.9498 10.28C18.4232 9.79333 18.9732 9.41333 19.5998 9.14C20.2265 8.86667 20.8932 8.73 21.5998 8.73C22.2798 8.73 22.8765 8.88667 23.3898 9.2C23.9032 9.50667 24.3232 9.91667 24.6498 10.43V9ZM21.6198 17.25C22.1998 17.25 22.7065 17.1033 23.1398 16.81C23.5732 16.51 23.9098 16.1133 24.1498 15.62C24.3898 15.1267 24.5098 14.5867 24.5098 14C24.5098 13.4 24.3865 12.8567 24.1398 12.37C23.8998 11.8767 23.5632 11.4833 23.1298 11.19C22.6965 10.89 22.1932 10.74 21.6198 10.74C21.0598 10.74 20.5465 10.8867 20.0798 11.18C19.6198 11.4733 19.2532 11.8667 18.9798 12.36C18.7065 12.8533 18.5698 13.4 18.5698 14C18.5698 14.6 18.7065 15.1467 18.9798 15.64C19.2598 16.1333 19.6298 16.5267 20.0898 16.82C20.5565 17.1067 21.0665 17.25 21.6198 17.25Z" fill="#1A6CC2"/>
<path d="M33.9344 19V5H38.9044C39.6244 5 40.2744 5.14667 40.8544 5.44C41.441 5.73333 41.9044 6.15667 42.2444 6.71C42.591 7.25667 42.7644 7.91333 42.7644 8.68C42.7644 9.05333 42.7044 9.42 42.5844 9.78C42.4644 10.14 42.2944 10.4567 42.0744 10.73C41.8544 11.0033 41.5877 11.1967 41.2744 11.31C41.701 11.4167 42.0544 11.61 42.3344 11.89C42.621 12.1633 42.8477 12.4833 43.0144 12.85C43.181 13.2167 43.2977 13.5967 43.3644 13.99C43.4377 14.3833 43.4744 14.7567 43.4744 15.11C43.4744 15.8567 43.2944 16.5233 42.9344 17.11C42.5744 17.6967 42.091 18.16 41.4844 18.5C40.8844 18.8333 40.221 19 39.4944 19H33.9344ZM36.0144 17.2H39.2944C39.721 17.2 40.1077 17.0933 40.4544 16.88C40.8077 16.6667 41.0877 16.3733 41.2944 16C41.501 15.62 41.6044 15.1933 41.6044 14.72C41.6044 14.3067 41.501 13.9167 41.2944 13.55C41.0877 13.1767 40.8077 12.8767 40.4544 12.65C40.1077 12.4233 39.721 12.31 39.2944 12.31H36.0144V17.2ZM36.0144 10.54H38.6844C39.231 10.54 39.701 10.3733 40.0944 10.04C40.4877 9.70667 40.6844 9.25 40.6844 8.67C40.6844 8.05 40.4877 7.58667 40.0944 7.28C39.701 6.96667 39.231 6.81 38.6844 6.81H36.0144V10.54ZM52.7886 9H54.8686V19H52.7786L52.6986 17.55C52.4053 18.0633 52.0086 18.4767 51.5086 18.79C51.0086 19.1033 50.4186 19.26 49.7386 19.26C49.0053 19.26 48.3153 19.1233 47.6686 18.85C47.0219 18.57 46.4519 18.1833 45.9586 17.69C45.4719 17.1967 45.0919 16.63 44.8186 15.99C44.5453 15.3433 44.4086 14.65 44.4086 13.91C44.4086 13.1967 44.5419 12.5267 44.8086 11.9C45.0753 11.2667 45.4453 10.7133 45.9186 10.24C46.3919 9.76667 46.9386 9.39667 47.5586 9.13C48.1853 8.85667 48.8553 8.72 49.5686 8.72C50.2953 8.72 50.9353 8.88667 51.4886 9.22C52.0486 9.54667 52.5119 9.96667 52.8786 10.48L52.7886 9ZM49.6886 17.25C50.2753 17.25 50.7886 17.1067 51.2286 16.82C51.6686 16.5267 52.0086 16.1333 52.2486 15.64C52.4953 15.1467 52.6186 14.6 52.6186 14C52.6186 13.3933 52.4953 12.8433 52.2486 12.35C52.0019 11.8567 51.6586 11.4667 51.2186 11.18C50.7853 10.8867 50.2753 10.74 49.6886 10.74C49.1086 10.74 48.5786 10.8867 48.0986 11.18C47.6186 11.4733 47.2386 11.8667 46.9586 12.36C46.6786 12.8533 46.5386 13.4 46.5386 14C46.5386 14.6067 46.6819 15.1567 46.9686 15.65C47.2619 16.1367 47.6453 16.5267 48.1186 16.82C48.5986 17.1067 49.1219 17.25 49.6886 17.25ZM65.0041 11.08L59.4441 16.92H65.0041V19H56.4641V16.92L62.0241 11.08H56.4641V9H65.0041V11.08ZM75.1408 11.08L69.5808 16.92H75.1408V19H66.6008V16.92L72.1608 11.08H66.6008V9H75.1408V11.08ZM84.7417 9H86.8217V19H84.7317L84.6517 17.55C84.3584 18.0633 83.9617 18.4767 83.4617 18.79C82.9617 19.1033 82.3717 19.26 81.6917 19.26C80.9584 19.26 80.2684 19.1233 79.6217 18.85C78.9751 18.57 78.4051 18.1833 77.9117 17.69C77.4251 17.1967 77.0451 16.63 76.7717 15.99C76.4984 15.3433 76.3617 14.65 76.3617 13.91C76.3617 13.1967 76.4951 12.5267 76.7617 11.9C77.0284 11.2667 77.3984 10.7133 77.8717 10.24C78.3451 9.76667 78.8917 9.39667 79.5117 9.13C80.1384 8.85667 80.8084 8.72 81.5217 8.72C82.2484 8.72 82.8884 8.88667 83.4417 9.22C84.0017 9.54667 84.4651 9.96667 84.8317 10.48L84.7417 9ZM81.6417 17.25C82.2284 17.25 82.7417 17.1067 83.1817 16.82C83.6217 16.5267 83.9617 16.1333 84.2017 15.64C84.4484 15.1467 84.5717 14.6 84.5717 14C84.5717 13.3933 84.4484 12.8433 84.2017 12.35C83.9551 11.8567 83.6117 11.4667 83.1717 11.18C82.7384 10.8867 82.2284 10.74 81.6417 10.74C81.0617 10.74 80.5317 10.8867 80.0517 11.18C79.5717 11.4733 79.1917 11.8667 78.9117 12.36C78.6317 12.8533 78.4917 13.4 78.4917 14C78.4917 14.6067 78.6351 15.1567 78.9217 15.65C79.2151 16.1367 79.5984 16.5267 80.0717 16.82C80.5517 17.1067 81.0751 17.25 81.6417 17.25ZM88.8172 19V9H90.8972V10.06C91.2439 9.64667 91.6705 9.32 92.1772 9.08C92.6839 8.84 93.2305 8.72 93.8172 8.72C94.1905 8.72 94.5605 8.77 94.9272 8.87L94.0972 10.97C93.8372 10.87 93.5772 10.82 93.3172 10.82C92.8772 10.82 92.4739 10.93 92.1072 11.15C91.7405 11.3633 91.4472 11.6533 91.2272 12.02C91.0072 12.3867 90.8972 12.7933 90.8972 13.24V19H88.8172Z" fill="#2EB7A6"/>
<line x1="18" y1="20.75" x2="1" y2="20.75" stroke="url(#paint0_linear_490_17)" stroke-width="1.5"/>
<defs>
<linearGradient id="paint0_linear_490_17" x1="15" y1="21" x2="1" y2="21" gradientUnits="userSpaceOnUse">
<stop stop-color="#1A6CC2"/>
<stop offset="1" stop-color="#1A6CC2" stop-opacity="0"/>
</linearGradient>
</defs>
</svg>
